<?xml version="1.0" standalone="no"?>
<!DOCTYPE svg PUBLIC "-//W3C//DTD SVG 20010904//EN"
 "http://www.w3.org/TR/2001/REC-SVG-20010904/DTD/svg10.dtd">
<svg version="1.0" xmlns="http://www.w3.org/2000/svg"
 width="280.000000pt" height="280.000000pt" viewBox="0 0 280.000000 280.000000"
 preserveAspectRatio="xMidYMid meet">
<metadata>
Created by potrace 1.14, written by Peter Selinger 2001-2017
</metadata>
<g transform="translate(0.000000,280.000000) scale(0.100000,-0.100000)"
fill="#000000" stroke="none">
<path d="M1291 2784 c-119 -32 -216 -104 -293 -218 -69 -101 -541 -1047 -749
-1504 -121 -263 -141 -323 -145 -442 -13 -340 249 -614 586 -614 214 0 404 92
616 296 l91 88 80 -78 c107 -105 200 -174 308 -227 121 -61 213 -83 328 -79
104 3 109 4 192 34 191 71 323 225 376 440 33 135 19 248 -53 415 -35 80 -45
100 -153 330 -31 66 -77 165 -103 220 -108 231 -526 1053 -567 1115 -100 151
-226 228 -385 235 -45 2 -97 -2 -129 -11z m200 -184 c54 -15 114 -59 158 -119
52 -70 425 -812 685 -1364 31 -65 56 -120 56 -122 0 -2 16 -39 36 -82 74 -159
92 -215 95 -303 6 -152 -89 -318 -222 -385 -213 -108 -450 -35 -701 216 -74
74 -88 93 -70 101 27 11 194 261 239 358 85 184 105 259 105 405 1 214 -128
385 -334 444 -62 18 -187 21 -249 7 -95 -22 -195 -81 -255 -150 -198 -226
-123 -601 204 -1030 l45 -59 -89 -86 c-174 -169 -313 -246 -463 -256 -182 -12
-340 82 -418 251 -25 53 -28 70 -28 164 0 99 3 111 39 199 21 52 66 153 101
225 34 72 74 156 88 186 182 397 596 1214 651 1285 51 66 115 111 175 122 14
2 27 6 28 7 5 5 86 -5 124 -14z m36 -1030 c127 -56 188 -186 161 -342 -5 -29
-10 -57 -12 -63 -2 -5 -6 -23 -11 -40 -24 -89 -153 -315 -250 -439 -18 -24
-15 -27 -98 91 -276 393 -281 714 -13 804 66 22 159 17 223 -11z"/>
</g>
</svg>
